{
    "asset" : {
        "generator" : "Khronos glTF Blender I/O v1.6.16",
        "version" : "2.0"
    },
    "scene" : 0,
    "scenes" : [
        {
            "name" : "Scene",
            "nodes" : [
                0,
                3,
                4,
                5
            ]
        }
    ],
    "nodes" : [
        {
            "name" : "Light",
            "rotation" : [
                0.16907575726509094,
                0.7558803558349609,
                -0.27217137813568115,
                0.570947527885437
            ],
            "translation" : [
                -23.923755645751953,
                5.903861999511719,
                -1.0054539442062378
            ]
        },
        {
            "camera" : 0,
            "name" : "Camera",
            "rotation" : [
                -0.7071067690849304,
                0,
                0,
                0.7071067690849304
            ]
        },
        {
            "children" : [
                1
            ],
            "rotation" : [
                0,
                0.7735762596130371,
                -0.633703351020813,
                2.8169187871185386e-08
            ],
            "scale" : [
                1.452667236328125,
                0.9198663234710693,
                1.438795804977417
            ],
            "translation" : [
                0,
                5.446937084197998,
                -5.543521404266357
            ]
        },
        {
            "children" : [
                2
            ],
            "mesh" : 0,
            "name" : "Head",
            "scale" : [
                2.5463850498199463,
                2.5463850498199463,
                4.120125770568848
            ],
            "translation" : [
                0,
                0,
                -3
            ]
        },
        {
            "mesh" : 1,
            "name" : "Body",
            "scale" : [
                2.5463850498199463,
                2.5463850498199463,
                4.120125770568848
            ],
            "translation" : [
                0,
                0,
                17
            ]
        },
        {
            "mesh" : 2,
            "name" : "Tail",
            "scale" : [
                2.5463850498199463,
                2.5463850498199463,
                4.120125770568848
            ],
            "translation" : [
                0,
                0,
                10
            ]
        }
    ],
    "cameras" : [
        {
            "name" : "Camera",
            "perspective" : {
                "aspectRatio" : 1.7777777777777777,
                "yfov" : 0.937270173412135,
                "zfar" : 100,
                "znear" : 0.10000000149011612
            },
            "type" : "perspective"
        }
    ],
    "materials" : [
        {
            "doubleSided" : true,
            "name" : "Material.001",
            "pbrMetallicRoughness" : {
                "baseColorTexture" : {
                    "index" : 0
                },
                "metallicFactor" : 0,
                "roughnessFactor" : 0.5
            }
        },
        {
            "doubleSided" : true,
            "name" : "Material",
            "pbrMetallicRoughness" : {
                "baseColorTexture" : {
                    "index" : 1
                },
                "metallicFactor" : 0,
                "roughnessFactor" : 0.5
            }
        },
        {
            "doubleSided" : true,
            "name" : "Material.002",
            "pbrMetallicRoughness" : {
                "baseColorTexture" : {
                    "index" : 2
                },
                "metallicFactor" : 0,
                "roughnessFactor" : 0.5
            }
        }
    ],
    "meshes" : [
        {
            "name" : "Cube.005",
            "primitives" : [
                {
                    "attributes" : {
                        "POSITION" : 0,
                        "NORMAL" : 1,
                        "TEXCOORD_0" : 2
                    },
                    "indices" : 3,
                    "material" : 0
                }
            ]
        },
        {
            "name" : "Cube.001",
            "primitives" : [
                {
                    "attributes" : {
                        "POSITION" : 4,
                        "NORMAL" : 5,
                        "TEXCOORD_0" : 6
                    },
                    "indices" : 7,
                    "material" : 1
                }
            ]
        },
        {
            "name" : "Cube.002",
            "primitives" : [
                {
                    "attributes" : {
                        "POSITION" : 8,
                        "NORMAL" : 9,
                        "TEXCOORD_0" : 10
                    },
                    "indices" : 11,
                    "material" : 2
                }
            ]
        }
    ],
    "textures" : [
        {
            "sampler" : 0,
            "source" : 0
        },
        {
            "sampler" : 0,
            "source" : 0
        },
        {
            "sampler" : 0,
            "source" : 0
        }
    ],
    "images" : [
        {
            "mimeType" : "image/png",
            "name" : "snek_pattern.png",
            "uri" : "snek_pattern_png.png"
        }
    ],
    "accessors" : [
        {
            "bufferView" : 0,
            "componentType" : 5126,
            "count" : 6678,
            "max" : [
                1.0926380157470703,
                1.544806957244873,
                1.2012879848480225
            ],
            "min" : [
                -1.0926380157470703,
                -0.9166668057441711,
                -2.1134746074676514
            ],
            "type" : "VEC3"
        },
        {
            "bufferView" : 1,
            "componentType" : 5126,
            "count" : 6678,
            "type" : "VEC3"
        },
        {
            "bufferView" : 2,
            "componentType" : 5126,
            "count" : 6678,
            "type" : "VEC2"
        },
        {
            "bufferView" : 3,
            "componentType" : 5123,
            "count" : 9876,
            "type" : "SCALAR"
        },
        {
            "bufferView" : 4,
            "componentType" : 5126,
            "count" : 1296,
            "max" : [
                0.9160648584365845,
                0.9157580733299255,
                -8.787434577941895
            ],
            "min" : [
                -0.9160647988319397,
                -0.9163717031478882,
                -11.304767608642578
            ],
            "type" : "VEC3"
        },
        {
            "bufferView" : 5,
            "componentType" : 5126,
            "count" : 1296,
            "type" : "VEC3"
        },
        {
            "bufferView" : 6,
            "componentType" : 5126,
            "count" : 1296,
            "type" : "VEC2"
        },
        {
            "bufferView" : 7,
            "componentType" : 5123,
            "count" : 1962,
            "type" : "SCALAR"
        },
        {
            "bufferView" : 8,
            "componentType" : 5126,
            "count" : 160,
            "max" : [
                0.9166667461395264,
                0.9166667461395264,
                -5.207428932189941
            ],
            "min" : [
                -0.9166667461395264,
                -0.9166668057441711,
                -7.306317329406738
            ],
            "type" : "VEC3"
        },
        {
            "bufferView" : 9,
            "componentType" : 5126,
            "count" : 160,
            "type" : "VEC3"
        },
        {
            "bufferView" : 10,
            "componentType" : 5126,
            "count" : 160,
            "type" : "VEC2"
        },
        {
            "bufferView" : 11,
            "componentType" : 5123,
            "count" : 276,
            "type" : "SCALAR"
        }
    ],
    "bufferViews" : [
        {
            "buffer" : 0,
            "byteLength" : 80136,
            "byteOffset" : 0
        },
        {
            "buffer" : 0,
            "byteLength" : 80136,
            "byteOffset" : 80136
        },
        {
            "buffer" : 0,
            "byteLength" : 53424,
            "byteOffset" : 160272
        },
        {
            "buffer" : 0,
            "byteLength" : 19752,
            "byteOffset" : 213696
        },
        {
            "buffer" : 0,
            "byteLength" : 15552,
            "byteOffset" : 233448
        },
        {
            "buffer" : 0,
            "byteLength" : 15552,
            "byteOffset" : 249000
        },
        {
            "buffer" : 0,
            "byteLength" : 10368,
            "byteOffset" : 264552
        },
        {
            "buffer" : 0,
            "byteLength" : 3924,
            "byteOffset" : 274920
        },
        {
            "buffer" : 0,
            "byteLength" : 1920,
            "byteOffset" : 278844
        },
        {
            "buffer" : 0,
            "byteLength" : 1920,
            "byteOffset" : 280764
        },
        {
            "buffer" : 0,
            "byteLength" : 1280,
            "byteOffset" : 282684
        },
        {
            "buffer" : 0,
            "byteLength" : 552,
            "byteOffset" : 283964
        }
    ],
    "samplers" : [
        {
            "magFilter" : 9729,
            "minFilter" : 9987
        }
    ],
    "buffers" : [
        {
            "byteLength" : 284516,
            "uri" : "snake_whole.bin"
        }
    ]
}
