{
    "asset" : {
        "generator" : "Khronos glTF Blender I/O v1.6.16",
        "version" : "2.0"
    },
    "scene" : 0,
    "scenes" : [
        {
            "name" : "Scene",
            "nodes" : [
                0,
                1,
                2
            ]
        }
    ],
    "nodes" : [
        {
            "name" : "Light",
            "rotation" : [
                0.16907575726509094,
                0.7558803558349609,
                -0.27217137813568115,
                0.570947527885437
            ],
            "translation" : [
                4.076245307922363,
                5.903861999511719,
                -1.0054539442062378
            ]
        },
        {
            "name" : "Camera",
            "rotation" : [
                0.483536034822464,
                0.33687159419059753,
                -0.20870360732078552,
                0.7804827094078064
            ],
            "translation" : [
                7.358891487121582,
                4.958309173583984,
                6.925790786743164
            ]
        },
        {
            "mesh" : 0,
            "name" : "satelit",
            "rotation" : [
                0.0006275355699472129,
                0.7071064710617065,
                -0.7071065306663513,
                0.0006275355699472129
            ],
            "scale" : [
                0.08706683665513992,
                0.48824238777160645,
                0.08706683665513992
            ],
            "translation" : [
                0.7653691172599792,
                -0.03923743963241577,
                -3.3743510246276855
            ]
        }
    ],
    "materials" : [
        {
            "doubleSided" : true,
            "name" : "Material.002",
            "pbrMetallicRoughness" : {
                "baseColorFactor" : [
                    0.03411167860031128,
                    0.03411167860031128,
                    0.03411167860031128,
                    1
                ],
                "metallicFactor" : 0,
                "roughnessFactor" : 0.5
            }
        },
        {
            "doubleSided" : true,
            "name" : "Material.004",
            "pbrMetallicRoughness" : {
                "baseColorFactor" : [
                    0.11933786422014236,
                    0.27543601393699646,
                    0.2027323842048645,
                    1
                ],
                "metallicFactor" : 0,
                "roughnessFactor" : 0.5
            }
        },
        {
            "doubleSided" : true,
            "name" : "Material.005",
            "pbrMetallicRoughness" : {
                "baseColorFactor" : [
                    0.28704383969306946,
                    0.28704383969306946,
                    0.28704383969306946,
                    1
                ],
                "metallicFactor" : 0,
                "roughnessFactor" : 0.5
            }
        },
        {
            "doubleSided" : true,
            "name" : "Material.001",
            "pbrMetallicRoughness" : {
                "baseColorFactor" : [
                    0.014333819970488548,
                    0.0872252807021141,
                    0.8000000715255737,
                    1
                ],
                "metallicFactor" : 0,
                "roughnessFactor" : 0.5
            }
        }
    ],
    "meshes" : [
        {
            "name" : "Cylinder.015",
            "primitives" : [
                {
                    "attributes" : {
                        "POSITION" : 0,
                        "NORMAL" : 1,
                        "TEXCOORD_0" : 2,
                        "COLOR_0" : 3
                    },
                    "indices" : 4,
                    "material" : 0
                },
                {
                    "attributes" : {
                        "POSITION" : 5,
                        "NORMAL" : 6,
                        "TEXCOORD_0" : 7,
                        "COLOR_0" : 8
                    },
                    "indices" : 9,
                    "material" : 1
                },
                {
                    "attributes" : {
                        "POSITION" : 10,
                        "NORMAL" : 11,
                        "TEXCOORD_0" : 12,
                        "COLOR_0" : 13
                    },
                    "indices" : 14,
                    "material" : 2
                },
                {
                    "attributes" : {
                        "POSITION" : 15,
                        "NORMAL" : 16,
                        "TEXCOORD_0" : 17,
                        "COLOR_0" : 18
                    },
                    "indices" : 19,
                    "material" : 3
                }
            ]
        }
    ],
    "accessors" : [
        {
            "bufferView" : 0,
            "componentType" : 5126,
            "count" : 1728,
            "max" : [
                1,
                1,
                5.389935493469238
            ],
            "min" : [
                -15.792521476745605,
                -14.922500610351562,
                -5.244758605957031
            ],
            "type" : "VEC3"
        },
        {
            "bufferView" : 1,
            "componentType" : 5126,
            "count" : 1728,
            "type" : "VEC3"
        },
        {
            "bufferView" : 2,
            "componentType" : 5126,
            "count" : 1728,
            "type" : "VEC2"
        },
        {
            "bufferView" : 3,
            "componentType" : 5123,
            "count" : 1728,
            "normalized" : true,
            "type" : "VEC4"
        },
        {
            "bufferView" : 4,
            "componentType" : 5123,
            "count" : 3348,
            "type" : "SCALAR"
        },
        {
            "bufferView" : 5,
            "componentType" : 5126,
            "count" : 704,
            "max" : [
                20.227584838867188,
                -4.852205276489258,
                11.034772872924805
            ],
            "min" : [
                -43.37847900390625,
                -8.965786933898926,
                -11.936086654663086
            ],
            "type" : "VEC3"
        },
        {
            "bufferView" : 6,
            "componentType" : 5126,
            "count" : 704,
            "type" : "VEC3"
        },
        {
            "bufferView" : 7,
            "componentType" : 5126,
            "count" : 704,
            "type" : "VEC2"
        },
        {
            "bufferView" : 8,
            "componentType" : 5123,
            "count" : 704,
            "normalized" : true,
            "type" : "VEC4"
        },
        {
            "bufferView" : 9,
            "componentType" : 5123,
            "count" : 1308,
            "type" : "SCALAR"
        },
        {
            "bufferView" : 10,
            "componentType" : 5126,
            "count" : 320,
            "max" : [
                30.880002975463867,
                -3.926415205001831,
                16.341999053955078
            ],
            "min" : [
                19.105121612548828,
                -9.915576934814453,
                -17.243314743041992
            ],
            "type" : "VEC3"
        },
        {
            "bufferView" : 11,
            "componentType" : 5126,
            "count" : 320,
            "type" : "VEC3"
        },
        {
            "bufferView" : 12,
            "componentType" : 5126,
            "count" : 320,
            "type" : "VEC2"
        },
        {
            "bufferView" : 13,
            "componentType" : 5123,
            "count" : 320,
            "normalized" : true,
            "type" : "VEC4"
        },
        {
            "bufferView" : 14,
            "componentType" : 5123,
            "count" : 564,
            "type" : "SCALAR"
        },
        {
            "bufferView" : 15,
            "componentType" : 5126,
            "count" : 96,
            "max" : [
                4.909891128540039,
                4.604409217834473,
                4.49360990524292
            ],
            "min" : [
                -19.738283157348633,
                -18.532306671142578,
                -2.9211604595184326
            ],
            "type" : "VEC3"
        },
        {
            "bufferView" : 16,
            "componentType" : 5126,
            "count" : 96,
            "type" : "VEC3"
        },
        {
            "bufferView" : 17,
            "componentType" : 5126,
            "count" : 96,
            "type" : "VEC2"
        },
        {
            "bufferView" : 18,
            "componentType" : 5123,
            "count" : 96,
            "normalized" : true,
            "type" : "VEC4"
        },
        {
            "bufferView" : 19,
            "componentType" : 5123,
            "count" : 144,
            "type" : "SCALAR"
        }
    ],
    "bufferViews" : [
        {
            "buffer" : 0,
            "byteLength" : 20736,
            "byteOffset" : 0
        },
        {
            "buffer" : 0,
            "byteLength" : 20736,
            "byteOffset" : 20736
        },
        {
            "buffer" : 0,
            "byteLength" : 13824,
            "byteOffset" : 41472
        },
        {
            "buffer" : 0,
            "byteLength" : 13824,
            "byteOffset" : 55296
        },
        {
            "buffer" : 0,
            "byteLength" : 6696,
            "byteOffset" : 69120
        },
        {
            "buffer" : 0,
            "byteLength" : 8448,
            "byteOffset" : 75816
        },
        {
            "buffer" : 0,
            "byteLength" : 8448,
            "byteOffset" : 84264
        },
        {
            "buffer" : 0,
            "byteLength" : 5632,
            "byteOffset" : 92712
        },
        {
            "buffer" : 0,
            "byteLength" : 5632,
            "byteOffset" : 98344
        },
        {
            "buffer" : 0,
            "byteLength" : 2616,
            "byteOffset" : 103976
        },
        {
            "buffer" : 0,
            "byteLength" : 3840,
            "byteOffset" : 106592
        },
        {
            "buffer" : 0,
            "byteLength" : 3840,
            "byteOffset" : 110432
        },
        {
            "buffer" : 0,
            "byteLength" : 2560,
            "byteOffset" : 114272
        },
        {
            "buffer" : 0,
            "byteLength" : 2560,
            "byteOffset" : 116832
        },
        {
            "buffer" : 0,
            "byteLength" : 1128,
            "byteOffset" : 119392
        },
        {
            "buffer" : 0,
            "byteLength" : 1152,
            "byteOffset" : 120520
        },
        {
            "buffer" : 0,
            "byteLength" : 1152,
            "byteOffset" : 121672
        },
        {
            "buffer" : 0,
            "byteLength" : 768,
            "byteOffset" : 122824
        },
        {
            "buffer" : 0,
            "byteLength" : 768,
            "byteOffset" : 123592
        },
        {
            "buffer" : 0,
            "byteLength" : 288,
            "byteOffset" : 124360
        }
    ],
    "buffers" : [
        {
            "byteLength" : 124648,
            "uri" : "satelit.bin"
        }
    ]
}
