{
    "asset" : {
        "generator" : "Khronos glTF Blender I/O v1.6.16",
        "version" : "2.0"
    },
    "scene" : 0,
    "scenes" : [
        {
            "name" : "Scene",
            "nodes" : [
                0,
                2,
                7
            ]
        }
    ],
    "nodes" : [
        {
            "name" : "Light",
            "rotation" : [
                0.16907575726509094,
                0.7558803558349609,
                -0.27217137813568115,
                0.570947527885437
            ],
            "translation" : [
                -23.923755645751953,
                5.903861999511719,
                -1.0054539442062378
            ]
        },
        {
            "camera" : 0,
            "name" : "Camera_Orientation",
            "rotation" : [
                -0.7071067690849304,
                0,
                0,
                0.7071067690849304
            ]
        },
        {
            "children" : [
                1
            ],
            "name" : "Camera",
            "rotation" : [
                0,
                -0.7666050791740417,
                0.6421190500259399,
                -2.8067917767771178e-08
            ],
            "scale" : [
                3.699050188064575,
                3.699050188064575,
                3.699050188064575
            ],
            "translation" : [
                0,
                13.869999885559082,
                -25.84000015258789
            ]
        },
        {
            "name" : "Bone",
            "rotation" : [
                -0.2218053787946701,
                1.16239895930903e-07,
                -2.6441263401011383e-08,
                0.9750909805297852
            ],
            "translation" : [
                1.6914095878601074,
                0.253169447183609,
                0.06449096649885178
            ]
        },
        {
            "name" : "Bone.002",
            "rotation" : [
                2.3105817703594766e-08,
                1.9254846606031606e-08,
                7.414987300757229e-17,
                1
            ],
            "translation" : [
                0,
                0.580418586730957,
                -2.6929924956675677e-09
            ]
        },
        {
            "children" : [
                4
            ],
            "name" : "Bone.001",
            "rotation" : [
                -1,
                0,
                0,
                9.627423303015803e-09
            ],
            "translation" : [
                1.6914095878601074,
                0.2531694769859314,
                0.06449098140001297
            ]
        },
        {
            "mesh" : 0,
            "name" : "Cube.003",
            "skin" : 0
        },
        {
            "children" : [
                6,
                3,
                5
            ],
            "name" : "Armature",
            "rotation" : [
                -0.7071068286895752,
                0,
                0,
                0.7071068286895752
            ],
            "scale" : [
                -5.1686835289001465,
                -5.1686835289001465,
                -5.1686835289001465
            ],
            "translation" : [
                8.572613716125488,
                0.3333333730697632,
                -4.424860954284668
            ]
        }
    ],
    "cameras" : [
        {
            "name" : "Camera",
            "perspective" : {
                "aspectRatio" : 1.7777777777777777,
                "yfov" : 0.937270173412135,
                "zfar" : 100,
                "znear" : 0.10000000149011612
            },
            "type" : "perspective"
        }
    ],
    "animations" : [
        {
            "channels" : [
                {
                    "sampler" : 0,
                    "target" : {
                        "node" : 3,
                        "path" : "translation"
                    }
                },
                {
                    "sampler" : 1,
                    "target" : {
                        "node" : 3,
                        "path" : "rotation"
                    }
                },
                {
                    "sampler" : 2,
                    "target" : {
                        "node" : 3,
                        "path" : "scale"
                    }
                },
                {
                    "sampler" : 3,
                    "target" : {
                        "node" : 5,
                        "path" : "translation"
                    }
                },
                {
                    "sampler" : 4,
                    "target" : {
                        "node" : 5,
                        "path" : "rotation"
                    }
                },
                {
                    "sampler" : 5,
                    "target" : {
                        "node" : 5,
                        "path" : "scale"
                    }
                },
                {
                    "sampler" : 6,
                    "target" : {
                        "node" : 4,
                        "path" : "translation"
                    }
                },
                {
                    "sampler" : 7,
                    "target" : {
                        "node" : 4,
                        "path" : "rotation"
                    }
                },
                {
                    "sampler" : 8,
                    "target" : {
                        "node" : 4,
                        "path" : "scale"
                    }
                }
            ],
            "name" : "ArmatureAction.001",
            "samplers" : [
                {
                    "input" : 7,
                    "interpolation" : "LINEAR",
                    "output" : 8
                },
                {
                    "input" : 7,
                    "interpolation" : "LINEAR",
                    "output" : 9
                },
                {
                    "input" : 7,
                    "interpolation" : "LINEAR",
                    "output" : 10
                },
                {
                    "input" : 7,
                    "interpolation" : "LINEAR",
                    "output" : 11
                },
                {
                    "input" : 7,
                    "interpolation" : "LINEAR",
                    "output" : 12
                },
                {
                    "input" : 7,
                    "interpolation" : "LINEAR",
                    "output" : 13
                },
                {
                    "input" : 7,
                    "interpolation" : "LINEAR",
                    "output" : 14
                },
                {
                    "input" : 7,
                    "interpolation" : "LINEAR",
                    "output" : 15
                },
                {
                    "input" : 7,
                    "interpolation" : "LINEAR",
                    "output" : 16
                }
            ]
        }
    ],
    "materials" : [
        {
            "doubleSided" : true,
            "name" : "Material.002",
            "pbrMetallicRoughness" : {
                "baseColorTexture" : {
                    "index" : 0
                },
                "metallicFactor" : 0,
                "roughnessFactor" : 0.5
            }
        }
    ],
    "meshes" : [
        {
            "name" : "Cube.001",
            "primitives" : [
                {
                    "attributes" : {
                        "POSITION" : 0,
                        "NORMAL" : 1,
                        "TEXCOORD_0" : 2,
                        "JOINTS_0" : 3,
                        "WEIGHTS_0" : 4
                    },
                    "indices" : 5,
                    "material" : 0
                }
            ]
        }
    ],
    "textures" : [
        {
            "sampler" : 0,
            "source" : 0
        }
    ],
    "images" : [
        {
            "mimeType" : "image/png",
            "name" : "snek_pattern",
            "uri" : "snek_pattern.png"
        }
    ],
    "skins" : [
        {
            "inverseBindMatrices" : 6,
            "joints" : [
                3,
                5,
                4
            ],
            "name" : "Armature"
        }
    ],
    "accessors" : [
        {
            "bufferView" : 0,
            "componentType" : 5126,
            "count" : 6680,
            "max" : [
                11.354890823364258,
                3.93367338180542,
                2.163149356842041
            ],
            "min" : [
                5.790337085723877,
                -2.334186315536499,
                -11.49409008026123
            ],
            "type" : "VEC3"
        },
        {
            "bufferView" : 1,
            "componentType" : 5126,
            "count" : 6680,
            "type" : "VEC3"
        },
        {
            "bufferView" : 2,
            "componentType" : 5126,
            "count" : 6680,
            "type" : "VEC2"
        },
        {
            "bufferView" : 3,
            "componentType" : 5121,
            "count" : 6680,
            "type" : "VEC4"
        },
        {
            "bufferView" : 4,
            "componentType" : 5126,
            "count" : 6680,
            "type" : "VEC4"
        },
        {
            "bufferView" : 5,
            "componentType" : 5123,
            "count" : 9876,
            "type" : "SCALAR"
        },
        {
            "bufferView" : 6,
            "componentType" : 5126,
            "count" : 3,
            "type" : "MAT4"
        },
        {
            "bufferView" : 7,
            "componentType" : 5126,
            "count" : 25,
            "max" : [
                1
            ],
            "min" : [
                0
            ],
            "type" : "SCALAR"
        },
        {
            "bufferView" : 8,
            "componentType" : 5126,
            "count" : 25,
            "type" : "VEC3"
        },
        {
            "bufferView" : 9,
            "componentType" : 5126,
            "count" : 25,
            "type" : "VEC4"
        },
        {
            "bufferView" : 10,
            "componentType" : 5126,
            "count" : 25,
            "type" : "VEC3"
        },
        {
            "bufferView" : 11,
            "componentType" : 5126,
            "count" : 25,
            "type" : "VEC3"
        },
        {
            "bufferView" : 12,
            "componentType" : 5126,
            "count" : 25,
            "type" : "VEC4"
        },
        {
            "bufferView" : 13,
            "componentType" : 5126,
            "count" : 25,
            "type" : "VEC3"
        },
        {
            "bufferView" : 14,
            "componentType" : 5126,
            "count" : 25,
            "type" : "VEC3"
        },
        {
            "bufferView" : 15,
            "componentType" : 5126,
            "count" : 25,
            "type" : "VEC4"
        },
        {
            "bufferView" : 16,
            "componentType" : 5126,
            "count" : 25,
            "type" : "VEC3"
        }
    ],
    "bufferViews" : [
        {
            "buffer" : 0,
            "byteLength" : 80160,
            "byteOffset" : 0
        },
        {
            "buffer" : 0,
            "byteLength" : 80160,
            "byteOffset" : 80160
        },
        {
            "buffer" : 0,
            "byteLength" : 53440,
            "byteOffset" : 160320
        },
        {
            "buffer" : 0,
            "byteLength" : 26720,
            "byteOffset" : 213760
        },
        {
            "buffer" : 0,
            "byteLength" : 106880,
            "byteOffset" : 240480
        },
        {
            "buffer" : 0,
            "byteLength" : 19752,
            "byteOffset" : 347360
        },
        {
            "buffer" : 0,
            "byteLength" : 192,
            "byteOffset" : 367112
        },
        {
            "buffer" : 0,
            "byteLength" : 100,
            "byteOffset" : 367304
        },
        {
            "buffer" : 0,
            "byteLength" : 300,
            "byteOffset" : 367404
        },
        {
            "buffer" : 0,
            "byteLength" : 400,
            "byteOffset" : 367704
        },
        {
            "buffer" : 0,
            "byteLength" : 300,
            "byteOffset" : 368104
        },
        {
            "buffer" : 0,
            "byteLength" : 300,
            "byteOffset" : 368404
        },
        {
            "buffer" : 0,
            "byteLength" : 400,
            "byteOffset" : 368704
        },
        {
            "buffer" : 0,
            "byteLength" : 300,
            "byteOffset" : 369104
        },
        {
            "buffer" : 0,
            "byteLength" : 300,
            "byteOffset" : 369404
        },
        {
            "buffer" : 0,
            "byteLength" : 400,
            "byteOffset" : 369704
        },
        {
            "buffer" : 0,
            "byteLength" : 300,
            "byteOffset" : 370104
        }
    ],
    "samplers" : [
        {
            "magFilter" : 9729,
            "minFilter" : 9987
        }
    ],
    "buffers" : [
        {
            "byteLength" : 370404,
            "uri" : "snek_head_animation-right.bin"
        }
    ]
}
