{
    "asset" : {
        "generator" : "Khronos glTF Blender I/O v1.6.16",
        "version" : "2.0"
    },
    "scene" : 0,
    "scenes" : [
        {
            "name" : "Scene",
            "nodes" : [
                0,
                1,
                6
            ]
        }
    ],
    "nodes" : [
        {
            "name" : "Light",
            "rotation" : [
                0.16907575726509094,
                0.7558803558349609,
                -0.27217137813568115,
                0.570947527885437
            ],
            "scale" : [
                3.000000238418579,
                3,
                3.000000238418579
            ],
            "translation" : [
                -16.488832473754883,
                12.280500411987305,
                -4.476530075073242
            ]
        },
        {
            "name" : "Camera.001",
            "rotation" : [
                0,
                -0.7666050791740417,
                0.6421190500259399,
                -2.8067917767771178e-08
            ],
            "scale" : [
                3.699050188064575,
                3.699050188064575,
                3.699050188064575
            ],
            "translation" : [
                0,
                13.869999885559082,
                -43.93000030517578
            ]
        },
        {
            "name" : "Bone.002",
            "rotation" : [
                0,
                1.3934528427368654e-15,
                0,
                1
            ],
            "translation" : [
                -1.262177448353619e-29,
                1.0608506202697754,
                0
            ]
        },
        {
            "children" : [
                2
            ],
            "name" : "Bone.001",
            "rotation" : [
                -2.1855695919725804e-08,
                1.0310917243850021e-15,
                -2.253522697410217e-23,
                1
            ],
            "translation" : [
                0,
                1,
                0
            ]
        },
        {
            "children" : [
                3
            ],
            "name" : "Bone"
        },
        {
            "mesh" : 0,
            "name" : "Cube.002",
            "skin" : 0
        },
        {
            "children" : [
                5,
                4
            ],
            "name" : "Armature",
            "rotation" : [
                0.7071068286895752,
                0,
                0,
                0.7071068286895752
            ],
            "scale" : [
                -2.3967678546905518,
                -2.3967678546905518,
                -2.3967678546905518
            ],
            "translation" : [
                0,
                0,
                3
            ]
        }
    ],
    "animations" : [
        {
            "channels" : [
                {
                    "sampler" : 0,
                    "target" : {
                        "node" : 4,
                        "path" : "translation"
                    }
                },
                {
                    "sampler" : 1,
                    "target" : {
                        "node" : 4,
                        "path" : "rotation"
                    }
                },
                {
                    "sampler" : 2,
                    "target" : {
                        "node" : 4,
                        "path" : "scale"
                    }
                },
                {
                    "sampler" : 3,
                    "target" : {
                        "node" : 3,
                        "path" : "translation"
                    }
                },
                {
                    "sampler" : 4,
                    "target" : {
                        "node" : 3,
                        "path" : "rotation"
                    }
                },
                {
                    "sampler" : 5,
                    "target" : {
                        "node" : 3,
                        "path" : "scale"
                    }
                },
                {
                    "sampler" : 6,
                    "target" : {
                        "node" : 2,
                        "path" : "translation"
                    }
                },
                {
                    "sampler" : 7,
                    "target" : {
                        "node" : 2,
                        "path" : "rotation"
                    }
                },
                {
                    "sampler" : 8,
                    "target" : {
                        "node" : 2,
                        "path" : "scale"
                    }
                },
                {
                    "sampler" : 9,
                    "target" : {
                        "node" : 6,
                        "path" : "translation"
                    }
                },
                {
                    "sampler" : 10,
                    "target" : {
                        "node" : 6,
                        "path" : "rotation"
                    }
                },
                {
                    "sampler" : 11,
                    "target" : {
                        "node" : 6,
                        "path" : "scale"
                    }
                }
            ],
            "name" : "ArmatureAction.007",
            "samplers" : [
                {
                    "input" : 7,
                    "interpolation" : "LINEAR",
                    "output" : 8
                },
                {
                    "input" : 7,
                    "interpolation" : "LINEAR",
                    "output" : 9
                },
                {
                    "input" : 7,
                    "interpolation" : "LINEAR",
                    "output" : 10
                },
                {
                    "input" : 7,
                    "interpolation" : "LINEAR",
                    "output" : 11
                },
                {
                    "input" : 7,
                    "interpolation" : "LINEAR",
                    "output" : 12
                },
                {
                    "input" : 7,
                    "interpolation" : "LINEAR",
                    "output" : 13
                },
                {
                    "input" : 7,
                    "interpolation" : "LINEAR",
                    "output" : 14
                },
                {
                    "input" : 7,
                    "interpolation" : "LINEAR",
                    "output" : 15
                },
                {
                    "input" : 7,
                    "interpolation" : "LINEAR",
                    "output" : 16
                },
                {
                    "input" : 7,
                    "interpolation" : "LINEAR",
                    "output" : 17
                },
                {
                    "input" : 7,
                    "interpolation" : "LINEAR",
                    "output" : 18
                },
                {
                    "input" : 7,
                    "interpolation" : "LINEAR",
                    "output" : 19
                }
            ]
        }
    ],
    "materials" : [
        {
            "doubleSided" : true,
            "name" : "Material",
            "pbrMetallicRoughness" : {
                "baseColorTexture" : {
                    "index" : 0
                },
                "metallicFactor" : 0,
                "roughnessFactor" : 0.5
            }
        }
    ],
    "meshes" : [
        {
            "name" : "Cube.005",
            "primitives" : [
                {
                    "attributes" : {
                        "POSITION" : 0,
                        "NORMAL" : 1,
                        "TEXCOORD_0" : 2,
                        "JOINTS_0" : 3,
                        "WEIGHTS_0" : 4
                    },
                    "indices" : 5,
                    "material" : 0
                }
            ]
        }
    ],
    "textures" : [
        {
            "sampler" : 0,
            "source" : 0
        }
    ],
    "images" : [
        {
            "mimeType" : "image/png",
            "name" : "snek_pattern",
            "uri" : "snek_pattern.png"
        }
    ],
    "skins" : [
        {
            "inverseBindMatrices" : 6,
            "joints" : [
                4,
                3,
                2
            ],
            "name" : "Armature"
        }
    ],
    "accessors" : [
        {
            "bufferView" : 0,
            "componentType" : 5126,
            "count" : 160,
            "max" : [
                2.334186553955078,
                2.334186553955078,
                3.5447378158569336
            ],
            "min" : [
                -2.334186553955078,
                -2.334186553955078,
                -5.1029462814331055
            ],
            "type" : "VEC3"
        },
        {
            "bufferView" : 1,
            "componentType" : 5126,
            "count" : 160,
            "type" : "VEC3"
        },
        {
            "bufferView" : 2,
            "componentType" : 5126,
            "count" : 160,
            "type" : "VEC2"
        },
        {
            "bufferView" : 3,
            "componentType" : 5121,
            "count" : 160,
            "type" : "VEC4"
        },
        {
            "bufferView" : 4,
            "componentType" : 5126,
            "count" : 160,
            "type" : "VEC4"
        },
        {
            "bufferView" : 5,
            "componentType" : 5123,
            "count" : 276,
            "type" : "SCALAR"
        },
        {
            "bufferView" : 6,
            "componentType" : 5126,
            "count" : 3,
            "type" : "MAT4"
        },
        {
            "bufferView" : 7,
            "componentType" : 5126,
            "count" : 25,
            "max" : [
                1
            ],
            "min" : [
                0
            ],
            "type" : "SCALAR"
        },
        {
            "bufferView" : 8,
            "componentType" : 5126,
            "count" : 25,
            "type" : "VEC3"
        },
        {
            "bufferView" : 9,
            "componentType" : 5126,
            "count" : 25,
            "type" : "VEC4"
        },
        {
            "bufferView" : 10,
            "componentType" : 5126,
            "count" : 25,
            "type" : "VEC3"
        },
        {
            "bufferView" : 11,
            "componentType" : 5126,
            "count" : 25,
            "type" : "VEC3"
        },
        {
            "bufferView" : 12,
            "componentType" : 5126,
            "count" : 25,
            "type" : "VEC4"
        },
        {
            "bufferView" : 13,
            "componentType" : 5126,
            "count" : 25,
            "type" : "VEC3"
        },
        {
            "bufferView" : 14,
            "componentType" : 5126,
            "count" : 25,
            "type" : "VEC3"
        },
        {
            "bufferView" : 15,
            "componentType" : 5126,
            "count" : 25,
            "type" : "VEC4"
        },
        {
            "bufferView" : 16,
            "componentType" : 5126,
            "count" : 25,
            "type" : "VEC3"
        },
        {
            "bufferView" : 17,
            "componentType" : 5126,
            "count" : 25,
            "type" : "VEC3"
        },
        {
            "bufferView" : 18,
            "componentType" : 5126,
            "count" : 25,
            "type" : "VEC4"
        },
        {
            "bufferView" : 19,
            "componentType" : 5126,
            "count" : 25,
            "type" : "VEC3"
        }
    ],
    "bufferViews" : [
        {
            "buffer" : 0,
            "byteLength" : 1920,
            "byteOffset" : 0
        },
        {
            "buffer" : 0,
            "byteLength" : 1920,
            "byteOffset" : 1920
        },
        {
            "buffer" : 0,
            "byteLength" : 1280,
            "byteOffset" : 3840
        },
        {
            "buffer" : 0,
            "byteLength" : 640,
            "byteOffset" : 5120
        },
        {
            "buffer" : 0,
            "byteLength" : 2560,
            "byteOffset" : 5760
        },
        {
            "buffer" : 0,
            "byteLength" : 552,
            "byteOffset" : 8320
        },
        {
            "buffer" : 0,
            "byteLength" : 192,
            "byteOffset" : 8872
        },
        {
            "buffer" : 0,
            "byteLength" : 100,
            "byteOffset" : 9064
        },
        {
            "buffer" : 0,
            "byteLength" : 300,
            "byteOffset" : 9164
        },
        {
            "buffer" : 0,
            "byteLength" : 400,
            "byteOffset" : 9464
        },
        {
            "buffer" : 0,
            "byteLength" : 300,
            "byteOffset" : 9864
        },
        {
            "buffer" : 0,
            "byteLength" : 300,
            "byteOffset" : 10164
        },
        {
            "buffer" : 0,
            "byteLength" : 400,
            "byteOffset" : 10464
        },
        {
            "buffer" : 0,
            "byteLength" : 300,
            "byteOffset" : 10864
        },
        {
            "buffer" : 0,
            "byteLength" : 300,
            "byteOffset" : 11164
        },
        {
            "buffer" : 0,
            "byteLength" : 400,
            "byteOffset" : 11464
        },
        {
            "buffer" : 0,
            "byteLength" : 300,
            "byteOffset" : 11864
        },
        {
            "buffer" : 0,
            "byteLength" : 300,
            "byteOffset" : 12164
        },
        {
            "buffer" : 0,
            "byteLength" : 400,
            "byteOffset" : 12464
        },
        {
            "buffer" : 0,
            "byteLength" : 300,
            "byteOffset" : 12864
        }
    ],
    "samplers" : [
        {
            "magFilter" : 9729,
            "minFilter" : 9987
        }
    ],
    "buffers" : [
        {
            "byteLength" : 13164,
            "uri" : "snek_body_animated-left.bin"
        }
    ]
}
