{
    "asset" : {
        "generator" : "Khronos glTF Blender I/O v1.6.16",
        "version" : "2.0"
    },
    "scene" : 0,
    "scenes" : [
        {
            "name" : "Scene",
            "nodes" : [
                0,
                1,
                4
            ]
        }
    ],
    "nodes" : [
        {
            "name" : "Light",
            "rotation" : [
                0.16907575726509094,
                0.7558803558349609,
                -0.27217137813568115,
                0.570947527885437
            ],
            "translation" : [
                4.076245307922363,
                5.903861999511719,
                -1.0054539442062378
            ]
        },
        {
            "name" : "Camera",
            "rotation" : [
                0,
                -0.7666050791740417,
                0.6421190500259399,
                -2.8067917767771178e-08
            ],
            "scale" : [
                3.699050188064575,
                3.699050188064575,
                3.699050188064575
            ],
            "translation" : [
                0,
                13.869999885559082,
                -43.93000030517578
            ]
        },
        {
            "name" : "Bone",
            "rotation" : [
                -7.779823896214566e-09,
                1.1912850794715268e-07,
                0.2878338694572449,
                0.9576804637908936
            ],
            "scale" : [
                0.9993831515312195,
                0.005739833693951368,
                0.9999999403953552
            ],
            "translation" : [
                0.23118838667869568,
                0.09750458598136902,
                -0.015848485752940178
            ]
        },
        {
            "mesh" : 0,
            "name" : "Cube",
            "skin" : 0
        },
        {
            "children" : [
                3,
                2
            ],
            "name" : "Armature",
            "rotation" : [
                0.6745930314064026,
                0.21195350587368011,
                -0.2119535207748413,
                0.6745929718017578
            ],
            "scale" : [
                7.96945333480835,
                7.96945333480835,
                7.96945333480835
            ],
            "translation" : [
                0,
                0,
                -4.779879570007324
            ]
        }
    ],
    "animations" : [
        {
            "channels" : [
                {
                    "sampler" : 0,
                    "target" : {
                        "node" : 2,
                        "path" : "translation"
                    }
                },
                {
                    "sampler" : 1,
                    "target" : {
                        "node" : 2,
                        "path" : "rotation"
                    }
                },
                {
                    "sampler" : 2,
                    "target" : {
                        "node" : 2,
                        "path" : "scale"
                    }
                }
            ],
            "name" : "ArmatureAction",
            "samplers" : [
                {
                    "input" : 7,
                    "interpolation" : "LINEAR",
                    "output" : 8
                },
                {
                    "input" : 7,
                    "interpolation" : "LINEAR",
                    "output" : 9
                },
                {
                    "input" : 7,
                    "interpolation" : "LINEAR",
                    "output" : 10
                }
            ]
        }
    ],
    "materials" : [
        {
            "doubleSided" : true,
            "name" : "Material",
            "pbrMetallicRoughness" : {
                "baseColorTexture" : {
                    "index" : 0
                },
                "metallicFactor" : 0,
                "roughnessFactor" : 0.5
            }
        }
    ],
    "meshes" : [
        {
            "name" : "Cube.001",
            "primitives" : [
                {
                    "attributes" : {
                        "POSITION" : 0,
                        "NORMAL" : 1,
                        "TEXCOORD_0" : 2,
                        "JOINTS_0" : 3,
                        "WEIGHTS_0" : 4
                    },
                    "indices" : 5,
                    "material" : 0
                }
            ]
        }
    ],
    "textures" : [
        {
            "sampler" : 0,
            "source" : 0
        }
    ],
    "images" : [
        {
            "mimeType" : "image/png",
            "name" : "snek_pattern",
            "uri" : "snek_pattern.png"
        }
    ],
    "skins" : [
        {
            "inverseBindMatrices" : 6,
            "joints" : [
                2
            ],
            "name" : "Armature"
        }
    ],
    "accessors" : [
        {
            "bufferView" : 0,
            "componentType" : 5126,
            "count" : 3808,
            "max" : [
                5.5977702140808105,
                2.273674726486206,
                2.7702503204345703
            ],
            "min" : [
                -2.2076330184936523,
                -2.273674726486206,
                -5.465208530426025
            ],
            "type" : "VEC3"
        },
        {
            "bufferView" : 1,
            "componentType" : 5126,
            "count" : 3808,
            "type" : "VEC3"
        },
        {
            "bufferView" : 2,
            "componentType" : 5126,
            "count" : 3808,
            "type" : "VEC2"
        },
        {
            "bufferView" : 3,
            "componentType" : 5121,
            "count" : 3808,
            "type" : "VEC4"
        },
        {
            "bufferView" : 4,
            "componentType" : 5126,
            "count" : 3808,
            "type" : "VEC4"
        },
        {
            "bufferView" : 5,
            "componentType" : 5123,
            "count" : 5748,
            "type" : "SCALAR"
        },
        {
            "bufferView" : 6,
            "componentType" : 5126,
            "count" : 1,
            "type" : "MAT4"
        },
        {
            "bufferView" : 7,
            "componentType" : 5126,
            "count" : 25,
            "max" : [
                1
            ],
            "min" : [
                0
            ],
            "type" : "SCALAR"
        },
        {
            "bufferView" : 8,
            "componentType" : 5126,
            "count" : 25,
            "type" : "VEC3"
        },
        {
            "bufferView" : 9,
            "componentType" : 5126,
            "count" : 25,
            "type" : "VEC4"
        },
        {
            "bufferView" : 10,
            "componentType" : 5126,
            "count" : 25,
            "type" : "VEC3"
        }
    ],
    "bufferViews" : [
        {
            "buffer" : 0,
            "byteLength" : 45696,
            "byteOffset" : 0
        },
        {
            "buffer" : 0,
            "byteLength" : 45696,
            "byteOffset" : 45696
        },
        {
            "buffer" : 0,
            "byteLength" : 30464,
            "byteOffset" : 91392
        },
        {
            "buffer" : 0,
            "byteLength" : 15232,
            "byteOffset" : 121856
        },
        {
            "buffer" : 0,
            "byteLength" : 60928,
            "byteOffset" : 137088
        },
        {
            "buffer" : 0,
            "byteLength" : 11496,
            "byteOffset" : 198016
        },
        {
            "buffer" : 0,
            "byteLength" : 64,
            "byteOffset" : 209512
        },
        {
            "buffer" : 0,
            "byteLength" : 100,
            "byteOffset" : 209576
        },
        {
            "buffer" : 0,
            "byteLength" : 300,
            "byteOffset" : 209676
        },
        {
            "buffer" : 0,
            "byteLength" : 400,
            "byteOffset" : 209976
        },
        {
            "buffer" : 0,
            "byteLength" : 300,
            "byteOffset" : 210376
        }
    ],
    "samplers" : [
        {
            "magFilter" : 9729,
            "minFilter" : 9987
        }
    ],
    "buffers" : [
        {
            "byteLength" : 210676,
            "uri" : "snake_body_curve_animated.bin"
        }
    ]
}
