{
    "asset" : {
        "generator" : "Khronos glTF Blender I/O v1.5.17",
        "version" : "2.0"
    },
    "extensionsUsed" : [
        "KHR_lights_punctual"
    ],
    "extensionsRequired" : [
        "KHR_lights_punctual"
    ],
    "extensions" : {
        "KHR_lights_punctual" : {
            "lights" : [
                {
                    "color" : [
                        1,
                        1,
                        1
                    ],
                    "intensity" : 1000,
                    "type" : "point",
                    "name" : "Light1"
                }
            ]
        }
    },
    "scene" : 0,
    "scenes" : [
        {
            "name" : "Scene",
            "nodes" : [
                1,
                3,
                4,
                5
            ]
        }
    ],
    "nodes" : [
        {
            "extensions" : {
                "KHR_lights_punctual" : {
                    "light" : 0
                }
            },
            "name" : "Light_Orientation",
            "rotation" : [
                -0.7071067690849304,
                0,
                0,
                0.7071067690849304
            ]
        },
        {
            "children" : [
                0
            ],
            "name" : "Light",
            "rotation" : [
                0.16907575726509094,
                0.7558803558349609,
                -0.27217137813568115,
                0.570947527885437
            ],
            "translation" : [
                -23.923755645751953,
                9.903861999511719,
                -1.0054539442062378
            ]
        },
        {
            "camera" : 0,
            "name" : "Camera_Orientation",
            "rotation" : [
                -0.7071067690849304,
                0,
                0,
                0.7071067690849304
            ]
        },
        {
            "children" : [
                2
            ],
            "name" : "Camera",
            "rotation" : [
                0,
                -0.7666050791740417,
                0.6421190500259399,
                -2.8067917767771178e-08
            ],
            "scale" : [
                3.699050188064575,
                3.699050188064575,
                3.699050188064575
            ],
            "translation" : [
                0,
                13.869999885559082,
                -43.93000030517578
            ]
        },
        {
            "name" : "Cube.001",
            "scale" : [
                1,
                1,
                1.6631325483322144
            ]
        },
        {
            "mesh" : 0,
            "name" : "Cube.002",
            "scale" : [
                2.5463850498199463,
                2.5463850498199463,
                4.120125770568848
            ],
            "translation" : [
                0,
                0,
                -3
            ]
        }
    ],
    "cameras" : [
        {
            "name" : "Camera",
            "perspective" : {
                "aspectRatio" : 1.7777777777777777,
                "yfov" : 0.39959652046304894,
                "zfar" : 100,
                "znear" : 0.10000000149011612
            },
            "type" : "perspective"
        }
    ],
    "meshes" : [
        {
            "name" : "Cube.005",
            "primitives" : [
                {
                    "attributes" : {
                        "POSITION" : 0,
                        "NORMAL" : 1,
                        "TEXCOORD_0" : 2
                    },
                    "indices" : 3
                }
            ]
        }
    ],
    "accessors" : [
        {
            "bufferView" : 0,
            "componentType" : 5126,
            "count" : 6678,
            "max" : [
                1.0926380157470703,
                1.544806957244873,
                1.2012879848480225
            ],
            "min" : [
                -1.0926380157470703,
                -0.9166668057441711,
                -2.1134746074676514
            ],
            "type" : "VEC3"
        },
        {
            "bufferView" : 1,
            "componentType" : 5126,
            "count" : 6678,
            "type" : "VEC3"
        },
        {
            "bufferView" : 2,
            "componentType" : 5126,
            "count" : 6678,
            "type" : "VEC2"
        },
        {
            "bufferView" : 3,
            "componentType" : 5123,
            "count" : 9876,
            "type" : "SCALAR"
        }
    ],
    "bufferViews" : [
        {
            "buffer" : 0,
            "byteLength" : 80136,
            "byteOffset" : 0
        },
        {
            "buffer" : 0,
            "byteLength" : 80136,
            "byteOffset" : 80136
        },
        {
            "buffer" : 0,
            "byteLength" : 53424,
            "byteOffset" : 160272
        },
        {
            "buffer" : 0,
            "byteLength" : 19752,
            "byteOffset" : 213696
        }
    ],
    "buffers" : [
        {
            "byteLength" : 233448,
            "uri" : "data:application/octet-stream;base64,"
        }
    ]
}
